<svg width="24" height="24" viewBox="0 0 24 24" fill="none" xmlns="http://www.w3.org/2000/svg">
<g opacity="0.4" clip-path="url(#clip0_5_35)">
<path d="M12 0C9.62661 0 7.30653 0.703788 5.33314 2.02236C3.35975 3.34094 1.82167 5.21509 0.913422 7.4078C0.00516887 9.60051 -0.232471 12.0133 0.230552 14.3411C0.693575 16.6689 1.83647 18.8071 3.5147 20.4853C5.19293 22.1635 7.33113 23.3064 9.6589 23.7694C11.9867 24.2324 14.3995 23.9948 16.5922 23.0866C18.7849 22.1783 20.6591 20.6402 21.9776 18.6668C23.2962 16.6935 24 14.3734 24 12C24 8.8174 22.7357 5.76516 20.4853 3.51472C18.2348 1.26428 15.1826 0 12 0V0ZM15.4137 7.80947C15.4137 8.03526 15.3189 8.12526 15.0979 8.12526C14.6732 8.12526 14.2484 8.12526 13.8253 8.14263C13.4021 8.16 13.1716 8.35263 13.1716 8.79474C13.1621 9.26842 13.1716 9.73263 13.1716 10.2158H14.9889C15.2479 10.2158 15.3363 10.3042 15.3363 10.5647C15.3363 11.1963 15.3363 11.8311 15.3363 12.4689C15.3363 12.7263 15.2542 12.8068 14.9937 12.8084H13.1558V17.9463C13.1558 18.2211 13.0705 18.3079 12.7989 18.3079H10.8221C10.5837 18.3079 10.4905 18.2147 10.4905 17.9763V12.8163H8.92104C8.67472 12.8163 8.5863 12.7263 8.5863 12.4784C8.5863 11.8395 8.5863 11.2011 8.5863 10.5632C8.5863 10.3168 8.67946 10.2237 8.92262 10.2237H10.4905V8.84211C10.4719 8.22151 10.6208 7.60737 10.9216 7.06421C11.2342 6.51585 11.7352 6.09957 12.3316 5.89263C12.7186 5.75181 13.1276 5.68123 13.5395 5.68421H15.0916C15.3142 5.68421 15.4074 5.78211 15.4074 6C15.4153 6.60789 15.4153 7.20947 15.4137 7.80947Z" fill="white"/>
</g>
<defs>
<clipPath id="clip0_5_35">
<rect width="24" height="24" fill="white"/>
</clipPath>
</defs>
</svg>
