<svg width="24" height="24" viewBox="0 0 24 24" fill="none" xmlns="http://www.w3.org/2000/svg">
<g opacity="0.4" clip-path="url(#clip0_5_43)">
<path d="M12 0C9.62658 0 7.3065 0.703788 5.33311 2.02236C3.35972 3.34094 1.82164 5.21509 0.913391 7.4078C0.00513835 9.60051 -0.232502 12.0133 0.230521 14.3411C0.693544 16.6689 1.83643 18.8071 3.51467 20.4853C5.1929 22.1635 7.3311 23.3064 9.65887 23.7694C11.9866 24.2324 14.3994 23.9948 16.5922 23.0866C18.7849 22.1783 20.659 20.6402 21.9776 18.6668C23.2962 16.6935 24 14.3734 24 12C24 8.8174 22.7357 5.76516 20.4852 3.51472C18.2348 1.26428 15.1826 0 12 0V0ZM8.51048 18.3158H5.89258V9.88263H8.51048V18.3158ZM7.19995 8.73158C6.89867 8.73282 6.60378 8.64472 6.35255 8.4784C6.10133 8.31209 5.90505 8.07502 5.78853 7.79718C5.67201 7.51934 5.64048 7.21318 5.69792 6.91742C5.75536 6.62166 5.89919 6.34957 6.11124 6.13553C6.32329 5.9215 6.59403 5.77514 6.88924 5.71494C7.18446 5.65475 7.49089 5.68343 7.76981 5.79735C8.04873 5.91128 8.28761 6.10534 8.45626 6.355C8.62491 6.60466 8.71576 6.89872 8.71732 7.2C8.71817 7.604 8.55903 7.99191 8.27469 8.27891C7.99035 8.56591 7.60394 8.72866 7.19995 8.73158ZM18.3158 18.3158H15.6994V14.2105C15.6994 13.2316 15.6805 11.9763 14.3384 11.9763C12.9963 11.9763 12.7594 13.0405 12.7594 14.1395V18.3158H10.1526V9.88263H12.6647V11.0321H12.701C13.05 10.3689 13.9042 9.66947 15.1784 9.66947C17.8279 9.66947 18.3158 11.4158 18.3158 13.6832V18.3158Z" fill="white"/>
</g>
<defs>
<clipPath id="clip0_5_43">
<rect width="24" height="24" fill="white"/>
</clipPath>
</defs>
</svg>
