<svg width="28" height="24" viewBox="0 0 28 24" fill="none" xmlns="http://www.w3.org/2000/svg">
<g clip-path="url(#clip0_5_13)">
<path d="M25.7984 4.58398H2.21621C1.475 4.58398 0.868622 5.11991 0.868622 5.77495V18.8758C0.868622 19.5308 1.475 20.0668 2.21621 20.0668H25.7985C26.5396 20.0668 27.146 19.5308 27.146 18.8758V5.77495C27.146 5.11991 26.5396 4.58398 25.7984 4.58398ZM25.2927 5.47716L14.7825 12.4445C14.5935 12.5716 14.3034 12.6511 14.0073 12.6499C13.7111 12.6511 13.4211 12.5716 13.2321 12.4445L2.72184 5.47716H25.2927ZM19.6785 12.9042L25.4056 19.1569C25.4114 19.1632 25.4184 19.1679 25.4245 19.1736H2.5901C2.59615 19.1676 2.60324 19.1632 2.60898 19.1569L8.33612 12.9042C8.51159 12.7125 8.47833 12.4314 8.26098 12.2759C8.04404 12.1208 7.72599 12.1502 7.55046 12.342L1.87927 18.5337V6.03545L12.626 13.159C13.03 13.4249 13.5214 13.5419 14.0072 13.5431C14.4923 13.5422 14.9842 13.4252 15.3884 13.159L26.1351 6.03545V18.5336L20.4641 12.342C20.2886 12.1503 19.9702 12.1208 19.7536 12.2759C19.5363 12.431 19.5029 12.7125 19.6785 12.9042Z" fill="#E84545"/>
</g>
<defs>
<clipPath id="clip0_5_13">
<rect width="26.2774" height="23.2241" fill="white" transform="translate(0.868622 0.713379)"/>
</clipPath>
</defs>
</svg>
