<svg width="24" height="24" viewBox="0 0 24 24" fill="none" xmlns="http://www.w3.org/2000/svg">
<g opacity="0.4" clip-path="url(#clip0_5_47)">
<path d="M10.3358 13.936L13.6642 12.005L10.3358 10.0645V13.936Z" fill="white"/>
<path d="M12 0C9.62658 0 7.3065 0.703788 5.33311 2.02236C3.35972 3.34094 1.82164 5.21509 0.913391 7.4078C0.00513835 9.60051 -0.232502 12.0133 0.230521 14.3411C0.693544 16.6689 1.83643 18.8071 3.51467 20.4853C5.1929 22.1635 7.3311 23.3064 9.65887 23.7694C11.9866 24.2324 14.3994 23.9948 16.5922 23.0866C18.7849 22.1783 20.659 20.6402 21.9776 18.6668C23.2962 16.6935 24 14.3734 24 12C24 8.8174 22.7357 5.76516 20.4852 3.51472C18.2348 1.26428 15.1826 0 12 0V0ZM18.3158 14.1237C18.316 14.4375 18.2543 14.7484 18.1344 15.0384C18.0144 15.3284 17.8385 15.5919 17.6166 15.8139C17.3948 16.0359 17.1313 16.2121 16.8414 16.3322C16.5514 16.4524 16.2407 16.5142 15.9268 16.5142H8.07311C7.75926 16.5142 7.44848 16.4524 7.15854 16.3322C6.86859 16.2121 6.60517 16.0359 6.38331 15.8139C6.16146 15.5919 5.98552 15.3284 5.86556 15.0384C5.74559 14.7484 5.68395 14.4375 5.68416 14.1237V9.87632C5.68395 9.56246 5.74559 9.25164 5.86556 8.96162C5.98552 8.6716 6.16146 8.40806 6.38331 8.18605C6.60517 7.96405 6.86859 7.78794 7.15854 7.66779C7.44848 7.54763 7.75926 7.48579 8.07311 7.48579H15.9268C16.2407 7.48579 16.5514 7.54763 16.8414 7.66779C17.1313 7.78794 17.3948 7.96405 17.6166 8.18605C17.8385 8.40806 18.0144 8.6716 18.1344 8.96162C18.2543 9.25164 18.316 9.56246 18.3158 9.87632V14.1237Z" fill="white"/>
</g>
<defs>
<clipPath id="clip0_5_47">
<rect width="24" height="24" fill="white"/>
</clipPath>
</defs>
</svg>
